# xmcd CD database file
#
# Track frame offsets:
#	150
#	10534
#	23564
#	36780
#	47314
#	57321
#	66985
#	79371
#	92756
#	108129
#	119361
#	132593
#	150129
#	161835
#	174587
#	184279
#	194116
#	207654
#	218291
#	228537
#
# Disc length: 3175 seconds
#
# Revision: 2
# Processed by: cddbd v1.4PL0 Copyright (c) Steve Scherf et al.
# Submitted via: CDex 1.50Beta7
#
DISCID=0e0c6514
DTITLE=Mina - Gold Collection [CD 1)
DYEAR=2000
DGENRE=Blues
TTITLE0=When
TTITLE1=Be Bop A Lula
TTITLE2=You Are My Destiny
TTITLE3=My True Love
TTITLE4=Nessuno
TTITLE5=Tua
TTITLE6=Io Sono Il Vento
TTITLE7=Tintarella Di Luna
TTITLE8=Una Zebra A Pois
TTITLE9=Personalita' (Personality)
TTITLE10=Il Cielo In Una Stanza
TTITLE11=Le Mille Bolle Blu
TTITLE12=Come Sinfonia
TTITLE13=Eclisse Twist
TTITLE14=Renato
TTITLE15=Stessa Spiaggia Stesso Mare
TTITLE16=Si' Lo So (Heisser Sand)
TTITLE17=A Volte (Pretend That I'm Her)
TTITLE18=Non Piangero' (Just Let Me Cry)
TTITLE19=Passione
EXTD=\n YEAR: 2000
EXTT0=
EXTT1=
EXTT2=
EXTT3=
EXTT4=
EXTT5=
EXTT6=
EXTT7=
EXTT8=
EXTT9=
EXTT10=
EXTT11=
EXTT12=
EXTT13=
EXTT14=
EXTT15=
EXTT16=
EXTT17=
EXTT18=
EXTT19=
PLAYORDER=
